<?xml version="1.0" encoding="iso-8859-1"?>
<!-- Generator: Adobe Illustrator 19.0.0, SVG Export Plug-In . SVG Version: 6.00 Build 0)  -->
<svg version="1.1" id="Capa_1" xmlns="http://www.w3.org/2000/svg" xmlns:xlink="http://www.w3.org/1999/xlink" x="0px" y="0px"
	 viewBox="0 0 490 490" style="enable-background:new 0 0 490 490;" xml:space="preserve">
<g>
	<g>
		<polygon points="40.8,357 42.8,401.3 86.7,403.3 88.7,447.2 133,449.2 134.6,490 171.5,453.1 36.9,318.5 0,355.4 		"/>
		<polygon points="403.3,86.7 401.3,42.8 357,40.8 355.4,0 318.5,36.9 453.1,171.5 490,134.6 449.2,133 447.2,88.7 		"/>
		<path d="M309.2,180.8L309.2,180.8c-7.8-7.8-20.5-7.8-28.2,0l-5.8,5.8l28.2,28.2l5.8-5.8C317,201.3,317,188.6,309.2,180.8z"/>
		<polygon points="202.8,294.2 213,284 196.6,277.8 		"/>
		<path d="M49.4,302.9l137.7,137.7C289.4,376,376.1,289.3,440.7,187L302.9,49.4C200.7,113.9,113.9,200.7,49.4,302.9z M166.7,308
			c-0.4,2.7-3,4.6-5.7,4.2c-6.3-1-12.6,1.1-17.1,5.6c-7.8,7.8-7.8,20.5,0,28.2c7.8,7.8,20.5,7.8,28.2,0c3.9-3.9,6.1-9.4,5.8-15
			c-0.1-2.8,2-5.1,4.8-5.2s5.1,2,5.2,4.8c0.3,8.3-2.8,16.5-8.7,22.4c-11.7,11.7-30.7,11.7-42.4,0s-11.7-30.7,0-42.4
			c6.7-6.7,16.3-9.8,25.6-8.4C165.3,302.7,167.1,305.3,166.7,308z M242.8,289.1c-1.4,2.8-4.7,4.3-7.4,3.3l-12.1-4.6l-16.5,16.5
			l4.6,12.1c1.6,4.7-2.7,7.1-3.3,7.4c-2.8,1.4-5.9,0.5-6.9-2.2l-19.4-51.2c-0.8-2-0.1-4.4,1.6-6.1c1.7-1.7,4.2-2.4,6.1-1.6
			l51.2,19.4C243.2,283.2,244.2,286.3,242.8,289.1z M303.7,145c0.6-2.7,3.2-4.4,5.9-3.8l22.2,4.8l-4.8-22.2
			c-0.6-2.7,1.1-5.4,3.8-5.9c2.7-0.6,5.4,1.1,5.9,3.8l6.1,28.4l16.1,16.1c1.9,1.9,1.9,5.1,0,7.1c-1.9,1.9-5.1,1.9-7.1,0l-16.1-16.1
			l-28.4-6.1C304.8,150.4,303.1,147.7,303.7,145z M264.6,190.1c-1.9-1.9-1.9-5.1,0-7.1l9.3-9.3c11.7-11.7,30.7-11.7,42.3,0l0,0
			c11.7,11.7,11.7,30.7,0,42.3l-9.3,9.3c-1.9,1.9-5.1,1.9-7.1,0L264.6,190.1z M244.7,210c-1.9-1.9-1.5-5.6,1.1-8.1
			c2.5-2.5,6.2-3,8.1-1.1l35.3,35.3c1.6,1.6,1.6,4.4,0,6.8c-0.3,0.5-2.6,4-6.8,3.6l-43.4-5.3l22.6,22.6c1.9,1.9,1.5,5.6-1.1,8.1
			c-2.5,2.5-6.2,3-8.1,1.1l-35.3-35.3c-1.6-1.6-1.6-4.4,0-6.8c1.6-2.4,4.3-3.9,6.8-3.6l43.4,5.3L244.7,210z"/>
	</g>
</g>
<g>
</g>
<g>
</g>
<g>
</g>
<g>
</g>
<g>
</g>
<g>
</g>
<g>
</g>
<g>
</g>
<g>
</g>
<g>
</g>
<g>
</g>
<g>
</g>
<g>
</g>
<g>
</g>
<g>
</g>
</svg>
