<?xml version="1.0" encoding="iso-8859-1"?>
<!-- Generator: Adobe Illustrator 16.0.0, SVG Export Plug-In . SVG Version: 6.00 Build 0)  -->
<!DOCTYPE svg PUBLIC "-//W3C//DTD SVG 1.1//EN" "http://www.w3.org/Graphics/SVG/1.1/DTD/svg11.dtd">
<svg version="1.1" id="Capa_1" xmlns="http://www.w3.org/2000/svg" xmlns:xlink="http://www.w3.org/1999/xlink" x="0px" y="0px"
	 width="518.362px" height="518.363px" viewBox="0 0 518.362 518.363" style="enable-background:new 0 0 518.362 518.363;"
	 xml:space="preserve">
<g>
	<path d="M399.232,461.061c-0.023-0.047-0.052-0.084-0.07-0.131V90.803c0-11.278-17.991-43.261-26.91-58.429v-7.976
		c3.379-2.198,5.624-5.993,5.624-10.314c0-6.667-5.321-12.113-11.948-12.31C363.108,1.568,338.808,0,257.773,0
		c-79.292,0-99.696,1.515-102.631,1.778c-6.576,0.248-11.848,5.678-11.848,12.31c0,2.604,0.822,5.015,2.208,7.007v11.283
		c-8.921,15.168-26.911,47.151-26.911,58.43v373.152c0,0.187,0.038,0.359,0.051,0.536c0.021,0.309,0.04,0.616,0.096,0.91
		c0.049,0.257,0.126,0.5,0.196,0.752c0.072,0.247,0.135,0.494,0.231,0.728c0.1,0.257,0.224,0.49,0.348,0.729
		c0.114,0.224,0.219,0.448,0.359,0.662c0.138,0.215,0.301,0.421,0.469,0.616c0.156,0.205,0.31,0.411,0.49,0.598
		c0.187,0.196,0.397,0.364,0.597,0.541c0.191,0.159,0.369,0.327,0.574,0.477c0.259,0.177,0.537,0.326,0.817,0.48
		c0.149,0.079,0.282,0.187,0.441,0.257c1.013,0.472,6.704,3.033,16.291,6.375c-0.712,1.194-1.15,2.586-1.15,4.089v13.227
		c0,3.621,2.427,6.795,5.925,7.747c3.615,0.989,58.852,15.686,122.287,15.681c37.281,0,77.395-5.077,111.516-20.992
		c2.828-1.32,4.639-4.163,4.639-7.28v-10.155c0-1.392-0.383-2.68-1.008-3.823c4.271-1.47,8.55-3.001,12.857-4.662
		C398.766,469.854,400.828,465.206,399.232,461.061z M134.663,198.141c2.9-0.311,5.836-0.707,8.837-1.108
		c3.141-0.497,6.266-1.253,9.486-1.897c3.223-0.655,6.471-1.396,9.764-2.175c3.208-1.013,6.457-2.037,9.745-3.068
		c3.284-1.066,6.667-2.054,9.95-3.335c3.223-1.402,6.476-2.816,9.759-4.245c3.255-1.491,6.681-2.795,9.885-4.497
		c3.139-1.792,6.303-3.603,9.486-5.426c3.169-1.848,6.431-3.64,9.577-5.6c2.973-2.166,5.96-4.34,8.961-6.518
		c2.991-2.21,5.997-4.427,9.007-6.648c2.894-2.333,5.573-4.875,8.307-7.388c5.057-4.713,10.137-9.448,15.21-14.181l3.604-3.521
		l2.968-2.494c1.928-1.678,3.864-3.389,6.259-5.052c2.269-1.673,4.485-3.421,6.828-4.908c2.314-1.545,4.578-3.197,7.038-4.473
		c2.398-1.372,4.76-2.819,7.28-3.92c2.437-1.27,4.873-2.555,7.43-3.545c2.497-1.122,5.031-2.165,7.636-2.987l3.854-1.386
		l3.921-1.181c20.908-6.203,43.133-7.259,62.707-6.13c0.321,0.019,0.625,0.046,0.952,0.065V313.74
		c-7.239-1.918-14.926-3.537-23.172-4.573c-13.559-1.667-28.46-1.881-43.806,0.392c-3.851,0.514-7.729,1.115-11.556,2.101
		c-3.878,0.808-7.705,1.876-11.537,3.089c-7.705,2.24-15.284,5.265-22.528,8.905c-3.729,1.68-7.183,3.743-10.72,5.75
		c-3.612,1.918-6.863,4.266-10.165,6.571c-3.297,2.18-6.613,4.825-9.906,7.547l-4.924,4.046l-3.776,3.515
		c-4.812,4.592-9.623,9.185-14.419,13.758l-6.585,6.353l-7.024,5.754c-2.329,1.938-4.646,3.86-6.95,5.778
		c-2.38,1.811-4.865,3.468-7.269,5.208c-2.422,1.731-4.837,3.459-7.232,5.167c-2.459,1.61-4.994,3.07-7.469,4.611
		c-2.49,1.535-4.961,3.062-7.402,4.564c-2.562,1.334-5.094,2.66-7.603,3.962c-2.525,1.33-5.02,2.655-7.486,3.962
		c-2.576,1.074-5.122,2.156-7.621,3.314c-2.52,1.097-4.97,2.324-7.479,3.304c-0.611,0.224-1.199,0.448-1.813,0.663V198.141H134.663z
		 M160.45,38.662c0.737-1.237,1.125-2.658,1.125-4.095v-8.167h194.607v8.167c0,1.438,0.388,2.858,1.125,4.095
		c4.023,6.786,8.153,14.137,11.906,21.149c-5.279-1.22-10.763-2.271-16.541-3.008c-13.291-1.662-27.899-1.878-42.951,0.392
		c-3.771,0.516-7.574,1.118-11.331,2.103c-3.804,0.81-7.561,1.878-11.317,3.089c-7.561,2.24-14.991,5.265-22.09,8.903
		c-3.654,1.682-7.049,3.745-10.508,5.754c-3.547,1.916-6.73,4.263-9.969,6.571c-3.232,2.179-6.487,4.821-9.717,7.544l-4.826,4.049
		l-3.701,3.512c-4.721,4.592-9.437,9.187-14.137,13.761l-6.461,6.35l-6.886,5.754c-2.28,1.937-4.553,3.862-6.814,5.778
		c-2.333,1.811-4.77,3.47-7.131,5.208c-2.38,1.731-4.739,3.456-7.087,5.167c-2.413,1.612-4.898,3.069-7.32,4.613
		c-2.443,1.533-4.866,3.06-7.264,4.564c-2.511,1.333-4.996,2.656-7.456,3.96c-2.476,1.335-4.924,2.658-7.341,3.962
		c-2.527,1.076-5.029,2.161-7.475,3.312c-2.093,0.938-4.154,1.937-6.228,2.821V90.835C134.917,85.216,148.202,59.323,160.45,38.662z
		 M134.663,458.587v-7.804c0.819-0.074,1.622-0.116,2.453-0.224c3.115-0.322,6.274-0.752,9.495-1.176
		c3.204-0.495,6.384-1.251,9.675-1.896c3.288-0.653,6.599-1.396,9.952-2.175c3.274-1.013,6.588-2.035,9.937-3.066
		c3.351-1.068,6.802-2.058,10.146-3.337c3.288-1.399,6.606-2.813,9.95-4.247c3.316-1.483,6.816-2.791,10.079-4.494
		c3.204-1.792,6.429-3.603,9.675-5.423c3.229-1.853,6.555-3.646,9.769-5.601c3.029-2.166,6.079-4.341,9.136-6.52
		c3.05-2.208,6.114-4.425,9.187-6.646c2.947-2.334,5.682-4.872,8.468-7.393c5.155-4.709,10.338-9.446,15.514-14.179l3.668-3.519
		l3.024-2.497c1.965-1.676,3.939-3.389,6.385-5.05c2.31-1.676,4.564-3.421,6.963-4.91c2.371-1.545,4.672-3.196,7.169-4.476
		c2.455-1.367,4.863-2.818,7.43-3.915c2.492-1.274,4.976-2.559,7.58-3.548c2.548-1.124,5.133-2.16,7.789-2.986l3.925-1.387
		l3.995-1.176c18.911-5.507,38.862-6.944,57.064-6.422v114.017C261.609,503.018,157.421,467.539,134.663,458.587z M151.184,283.988
		c0-18.048,7.733-35.676,20.36-48.837c9.026-9.516,19.852-16.211,32.359-19.919c9.535-2.831,16.503-2.576,18.939-1.631l-4.382,13.42
		c-2.833-0.707-8.76-0.492-16.363,1.764c-8.254,2.45-16.244,7.666-22.176,14.575c-7.603,8.961-12.508,21.366-12.508,34.004
		c0,14.566,7.474,23.308,24.624,18.221c6.312-1.881,12.765-4.957,17.399-8.532l1.421,11.831c-4.642,3.439-12.508,7.58-22.691,10.604
		C165.626,316.176,151.184,306.552,151.184,283.988z M240.937,293.947c21.396-6.356,36.35-29.1,36.35-50.362
		c0-13.92-8.896-23.398-25.783-18.384c-21.396,6.35-36.222,29.181-36.222,50.456C215.281,290.61,225.078,298.656,240.937,293.947z
		 M249.701,237.335c9.152-2.721,11.985,4.434,11.985,10.881c0,12.496-7.47,30.185-18.687,33.517
		c-7.603,2.259-12.244-2.427-12.244-11.061C230.755,258.946,237.714,240.889,249.701,237.335z M292.402,277.252l-15.084,4.472
		l17.534-96.716l14.949-4.441L292.402,277.252z M322.58,269.71c7.99-2.38,16.241-8.82,22.43-22.259l0.383-0.11
		c-0.514,5.568-1.026,10.748-1.157,14.524l13.922-4.132c-0.257-7.405,0.77-19.438,2.576-29.384l6.445-34.648
		c-4.761-0.128-12.116,0.761-18.943,2.787c-29.258,8.694-44.212,35.943-44.212,57.344
		C304.019,266.449,311.365,273.034,322.58,269.71z M344.235,209.267c2.707-0.803,4.639-1.113,6.188-1.19l-3.351,17.49
		c-2.959,16.867-11.468,28.159-18.431,30.224c-6.571,1.951-9.021-2.735-9.021-9.306
		C319.621,232.178,330.318,213.396,344.235,209.267z"/>
</g>
<g>
</g>
<g>
</g>
<g>
</g>
<g>
</g>
<g>
</g>
<g>
</g>
<g>
</g>
<g>
</g>
<g>
</g>
<g>
</g>
<g>
</g>
<g>
</g>
<g>
</g>
<g>
</g>
<g>
</g>
</svg>
